<svg width="40" height="40" viewBox="0 0 40 40" fill="none" xmlns="http://www.w3.org/2000/svg">
<path d="M33.9091 19.9999C33.9091 18.7715 33.7463 17.56 33.4332 16.3939H6.56682C6.25374 17.56 6.09091 18.7715 6.09091 19.9999C6.09091 21.2202 6.25179 22.4324 6.56682 23.6059H33.4332C33.7482 22.4324 33.9091 21.2202 33.9091 19.9999ZM7.81043 26.6968C8.44208 27.8465 9.23364 28.9038 10.1648 29.835C11.4564 31.1266 12.9899 32.1515 14.6774 32.8505C16.3649 33.5494 18.1735 33.9089 20 33.9089C21.8265 33.9089 23.6351 33.5494 25.3226 32.8505C27.0101 32.1515 28.5436 31.1266 29.8352 29.835C30.7664 28.9038 31.5579 27.8465 32.1896 26.6968H7.81043ZM20 6.09089C16.3111 6.09089 12.7733 7.55635 10.1648 10.1648C9.22699 11.1026 8.43777 12.161 7.81043 13.303H32.1896C31.5622 12.161 30.773 11.1026 29.8352 10.1648C27.2267 7.55635 23.6889 6.09089 20 6.09089ZM37 19.9999C37 22.2324 36.5604 24.4431 35.7061 26.5057C34.8518 28.5682 33.5991 30.4418 32.0205 32.0204C30.442 33.5989 28.5683 34.8516 26.5058 35.7059C24.4433 36.5602 22.2325 36.9998 20 36.9998C17.7675 36.9998 15.5567 36.5602 13.4942 35.7059C11.4317 34.8516 9.55803 33.5989 7.97946 32.0204C6.40089 30.4418 5.14824 28.5682 4.29392 26.5057C3.43959 24.4431 3 22.2324 3 19.9999C3 15.4913 4.79134 11.1675 7.97946 7.97944C11.1676 4.79133 15.4913 3 20 3C24.5087 3 28.8324 4.79133 32.0205 7.97944C35.2087 11.1675 37 15.4913 37 19.9999Z" fill="#48A57B"/>
<path d="M23.7402 20C23.7402 15.1178 22.4471 10.328 20.0003 6.11513C17.5534 10.328 16.2604 15.1177 16.2604 20C16.2604 24.882 17.5537 29.6712 20.0003 33.8839C22.4468 29.6712 23.7402 24.8819 23.7402 20ZM26.8311 20C26.8311 25.7535 25.2155 31.3914 22.1696 36.2725C21.7177 36.9966 20.7646 37.2173 20.0405 36.7655C20.0266 36.7568 20.0138 36.7464 20.0003 36.7373C19.9867 36.7464 19.974 36.7568 19.96 36.7655C19.2359 37.2173 18.2819 36.9966 17.83 36.2725C14.7841 31.3914 13.1695 25.7534 13.1695 20C13.1695 14.2466 14.7841 8.60856 17.83 3.72754C18.2819 3.00344 19.2359 2.78266 19.96 3.23453C19.974 3.24323 19.9867 3.25363 20.0003 3.2627C20.0138 3.25363 20.0266 3.24322 20.0405 3.23453C20.7646 2.78267 21.7177 3.00344 22.1696 3.72754C25.2155 8.60862 26.8311 14.2465 26.8311 20Z" fill="#48A57B"/>
</svg>
