<svg width="40" height="40" viewBox="0 0 40 40" fill="none" xmlns="http://www.w3.org/2000/svg">
<path d="M20.4957 22.4873C21.7042 22.6113 22.8238 23.179 23.6379 24.0807C24.452 24.9824 24.9027 26.1541 24.9028 27.3689C24.9028 29.8915 23.3651 31.9789 21.2973 33.3564C19.2197 34.7436 16.4386 35.5485 13.4514 35.5485C10.4642 35.5485 7.68318 34.7436 5.60556 33.3564C3.53449 31.9822 2 29.8915 2 27.3689C2 26.0673 2.51707 24.819 3.43745 23.8986C4.35783 22.9782 5.60614 22.4612 6.90775 22.4612H19.9951L20.4957 22.4873ZM33.0922 22.4612C34.3939 22.4612 35.6422 22.9782 36.5626 23.8986C37.4829 24.819 38 26.0673 38 27.3689C38 29.6428 36.5866 31.3311 34.7838 32.3683C32.9908 33.3989 30.6449 33.9126 28.1845 33.9126C27.3556 33.9104 26.5475 33.8493 25.7601 33.7294C27.1768 32.0542 28.178 29.9144 28.178 27.3689C28.1742 25.5976 27.5955 23.8754 26.5289 22.4612H33.0922ZM13.458 4.45298C14.4389 4.43275 15.4139 4.60854 16.326 4.97003C17.2381 5.33152 18.0688 5.87144 18.7695 6.55815C19.4702 7.24485 20.0268 8.06453 20.4066 8.96912C20.7864 9.87372 20.9818 10.845 20.9814 11.8261C20.981 12.8072 20.7847 13.7784 20.4041 14.6826C20.0234 15.5869 19.4661 16.4061 18.7648 17.0922C18.0635 17.7782 17.2323 18.3174 16.3199 18.6781C15.4075 19.0388 14.4323 19.2137 13.4514 19.1926C11.5237 19.152 9.68866 18.3577 8.3397 16.98C6.99074 15.6023 6.23527 13.7509 6.23527 11.8228C6.23527 9.89466 6.99074 8.04327 8.3397 6.66559C9.68866 5.28791 11.5237 4.4936 13.4514 4.45298M28.9926 7.72809C29.7445 7.72809 30.4891 7.87619 31.1838 8.16393C31.8784 8.45168 32.5096 8.87343 33.0413 9.40511C33.573 9.93679 33.9948 10.568 34.2825 11.2627C34.5702 11.9573 34.7183 12.7019 34.7183 13.4538C34.7183 14.2057 34.5702 14.9503 34.2825 15.6449C33.9948 16.3396 33.573 16.9708 33.0413 17.5025C32.5096 18.0342 31.8784 18.4559 31.1838 18.7437C30.4891 19.0314 29.7445 19.1795 28.9926 19.1795C27.4741 19.1795 26.0177 18.5763 24.9439 17.5025C23.8702 16.4287 23.2669 14.9724 23.2669 13.4538C23.2669 11.9352 23.8702 10.4789 24.9439 9.40511C26.0177 8.33133 27.4741 7.72809 28.9926 7.72809Z" fill="#48A57B"/>
</svg>
