<svg width="40" height="40" viewBox="0 0 40 40" fill="none" xmlns="http://www.w3.org/2000/svg">
<path d="M26.8 6.4C26.8 4.53 28.33 3 30.2 3C32.07 3 33.6 4.53 33.6 6.4C33.6 8.27 32.07 9.8 30.2 9.8C28.33 9.8 26.8 8.27 26.8 6.4ZM34.926 12.486C33.4353 11.8356 31.8264 11.4999 30.2 11.5C29.061 11.5 27.973 11.67 26.936 11.976C27.922 12.911 28.5 14.22 28.5 15.631V16.6H37V15.631C37 14.254 36.184 13.03 34.926 12.486ZM9.8 9.8C11.67 9.8 13.2 8.27 13.2 6.4C13.2 4.53 11.67 3 9.8 3C7.93 3 6.4 4.53 6.4 6.4C6.4 8.27 7.93 9.8 9.8 9.8ZM13.064 11.976C12.027 11.67 10.939 11.5 9.8 11.5C8.117 11.5 6.519 11.857 5.074 12.486C4.45811 12.7493 3.93317 13.1877 3.56443 13.7469C3.19569 14.306 2.99942 14.9612 3 15.631V16.6H11.5V15.631C11.5 14.22 12.078 12.911 13.064 11.976ZM16.6 6.4C16.6 4.53 18.13 3 20 3C21.87 3 23.4 4.53 23.4 6.4C23.4 8.27 21.87 9.8 20 9.8C18.13 9.8 16.6 8.27 16.6 6.4ZM26.8 16.6H13.2V15.631C13.2 14.254 14.016 13.03 15.274 12.486C16.7647 11.8354 18.3736 11.4996 20 11.4996C21.6264 11.4996 23.2354 11.8354 24.726 12.486C25.3419 12.7493 25.8668 13.1877 26.2356 13.7469C26.6043 14.306 26.8006 14.9612 26.8 15.631V16.6ZM25.1 26.8C25.1 24.93 26.63 23.4 28.5 23.4C30.37 23.4 31.9 24.93 31.9 26.8C31.9 28.67 30.37 30.2 28.5 30.2C26.63 30.2 25.1 28.67 25.1 26.8ZM35.3 37H21.7V36.031C21.7 34.654 22.516 33.43 23.774 32.886C25.2647 32.2354 26.8736 31.8996 28.5 31.8996C30.1264 31.8996 31.7354 32.2354 33.226 32.886C33.8419 33.1492 34.3668 33.5877 34.7356 34.1469C35.1043 34.706 35.3006 35.3612 35.3 36.031V37ZM8.1 26.8C8.1 24.93 9.63 23.4 11.5 23.4C13.37 23.4 14.9 24.93 14.9 26.8C14.9 28.67 13.37 30.2 11.5 30.2C9.63 30.2 8.1 28.67 8.1 26.8ZM18.3 37H4.7V36.031C4.7 34.654 5.516 33.43 6.774 32.886C8.26465 32.2354 9.87357 31.8996 11.5 31.8996C13.1264 31.8996 14.7354 32.2354 16.226 32.886C16.8419 33.1492 17.3668 33.5877 17.7356 34.1469C18.1043 34.706 18.3006 35.3612 18.3 36.031V37ZM21.275 21.7V18.3H18.725V21.7H14.9L20 26.8L25.1 21.7H21.275Z" fill="#48A57B"/>
</svg>
