<svg width="40" height="40" viewBox="0 0 40 40" fill="none" xmlns="http://www.w3.org/2000/svg">
<path d="M29 0C25.6865 0 23 2.75846 23 6.15385C23 10.2538 28.25 15.8554 28.25 21.4908H29.75C29.7515 15.8554 35 10.4154 35 6.15385C35 2.75846 32.3135 0 29 0ZM29 2.98154C29.4064 2.98174 29.8087 3.06403 30.1841 3.22372C30.5595 3.38341 30.9005 3.61736 31.1877 3.91222C31.4749 4.20709 31.7027 4.55708 31.858 4.94223C32.0133 5.32737 32.0932 5.74013 32.093 6.15692C32.0928 6.57372 32.0126 6.98639 31.8569 7.37138C31.7012 7.75638 31.4731 8.10614 31.1856 8.40072C30.8981 8.6953 30.5568 8.92891 30.1813 9.08823C29.8058 9.24754 29.4034 9.32943 28.997 9.32923C28.1761 9.32882 27.389 8.99396 26.8088 8.39832C26.2286 7.80268 25.9029 6.99504 25.9032 6.15308C25.9036 5.31112 26.2301 4.5038 26.8109 3.90874C27.3916 3.31367 28.1791 2.98113 29 2.98154ZM20 3.07692C10.0745 3.07692 2 11.3585 2 21.5385C2 31.7185 10.0745 40 20 40C29.9255 40 38 31.7185 38 21.5385C38 18.4462 37.253 15.5446 35.9375 12.98C35.738 13.3862 35.537 13.7723 35.3285 14.1831C34.934 14.9646 34.5185 15.7538 34.1555 16.5385C34.5305 17.6385 34.7885 18.8015 34.9055 20H32.9375C32.8295 20.5154 32.75 21 32.75 21.4908V23.0769H34.907C34.7025 25.2457 34.0468 27.3442 32.984 29.2308H28.58C28.91 27.7877 29.1005 26.1923 29.2355 24.5677H26.2805C26.1389 26.1415 25.873 27.701 25.4855 29.2308H14.5145C14.0071 27.2174 13.7085 25.1547 13.6235 23.0769H25.2485V21.4908C25.2367 20.9885 25.1738 20.4889 25.061 20H13.625C13.71 17.9223 14.0086 15.8595 14.516 13.8462H22.532C22.0113 12.8387 21.526 11.8124 21.077 10.7692H15.5465C16.787 7.86615 18.4265 6.15385 20 6.15385C20 5.08462 20.1875 4.08 20.516 3.12462C20.3435 3.11846 20.174 3.07692 20 3.07692ZM13.8125 7.54769C13.2154 8.57109 12.7132 9.64966 12.3125 10.7692H9.3125C10.6066 9.4207 12.1321 8.32858 13.8125 7.54769ZM7.016 13.8462H11.42C10.9661 15.8671 10.6994 17.9276 10.6235 20H5.093C5.29745 17.8313 5.95321 15.7327 7.016 13.8462ZM5.093 23.0769H10.625C10.7135 25.2692 10.9895 27.3385 11.4215 29.2308H7.016C5.95321 27.3442 5.29745 25.2457 5.093 23.0769ZM9.3125 32.3077H12.3125C12.7445 33.5015 13.25 34.5738 13.8125 35.5292C12.1321 34.7483 10.6066 33.6562 9.3125 32.3077ZM15.5465 32.3077H24.4535C23.213 35.2108 21.5735 36.9231 20 36.9231C18.4265 36.9231 16.7855 35.2108 15.5465 32.3077ZM27.6875 32.3077H30.6875C29.3934 33.6562 27.8679 34.7483 26.1875 35.5292C26.75 34.5754 27.2555 33.5031 27.6875 32.3077Z" fill="#48A57B"/>
</svg>
